<?xml version="1.0" encoding="utf-8"?>
<!-- Generator: Adobe Illustrator 24.0.1, SVG Export Plug-In . SVG Version: 6.00 Build 0)  -->
<svg version="1.1" id="Layer_1" xmlns="http://www.w3.org/2000/svg" xmlns:xlink="http://www.w3.org/1999/xlink" x="0px" y="0px"
	 viewBox="0 0 512 512" style="enable-background:new 0 0 512 512;" xml:space="preserve">
<style type="text/css">
	.st0{fill:#E6E6E6;}
	.st1{fill:#FEC700;}
	.st2{fill:#4D5152;}
</style>
<g>
	<polygon class="st0" points="482,242.7 196.1,242.7 114.3,435.7 184,435.7 184,425.7 482,425.7 	"/>
	<polygon class="st1" points="30,145.4 90,145.4 90,155.4 482,155.4 482,202.7 492,202.7 492,222.7 182.9,222.7 96.8,425.7 
		30,425.7 	"/>
	<g>
		<rect x="144" y="425.7" class="st2" width="20" height="20"/>
		<rect x="270.3" y="365.1" class="st2" width="157.6" height="20"/>
		<rect x="359.8" y="303.3" class="st2" width="20" height="20"/>
		<rect x="270.3" y="303.3" class="st2" width="69.6" height="20"/>
		<polygon class="st2" points="502,202.7 502,135.4 262.9,135.4 232.1,66.3 10,66.3 10,445.7 110.1,445.7 196.1,242.7 482,242.7 
			482,425.7 184,425.7 184,445.7 502,445.7 502,222.7 182.9,222.7 96.8,425.7 30,425.7 30,86.3 219.1,86.3 241,135.4 90,135.4 
			90,155.4 482,155.4 482,202.7 		"/>
		<rect x="50" y="135.4" class="st2" width="20" height="20"/>
	</g>
</g>
</svg>
