<?xml version="1.0" encoding="utf-8"?>
<!-- Generator: Adobe Illustrator 24.0.1, SVG Export Plug-In . SVG Version: 6.00 Build 0)  -->
<svg version="1.1" id="Layer_1" xmlns="http://www.w3.org/2000/svg" xmlns:xlink="http://www.w3.org/1999/xlink" x="0px" y="0px"
	 viewBox="0 0 512 512" style="enable-background:new 0 0 512 512;" xml:space="preserve">
<style type="text/css">
	.st0{fill:#FEC700;}
	.st1{fill:#4D5152;}
</style>
<g>
	<rect x="74.1" y="88.6" class="st0" width="363.9" height="184.6"/>
	<g>
		<path class="st1" d="M457.9,68.6H54.1v224.6h403.9V68.6z M437.9,273.2H74.1V88.6h363.9V273.2z"/>
		<path class="st1" d="M10,24.5v396.7l159.8-84H502V24.5H10z M482,317.3H94.1v20h32.7L30,388.1V44.5h452V317.3z"/>
		<rect x="148.3" y="170.9" class="st1" width="215.4" height="20"/>
		<polygon class="st1" points="148.1,416 133.9,401.9 91.1,444.7 133.9,487.5 148.1,473.3 129.4,454.7 319.5,454.7 319.5,434.7 
			129.4,434.7 		"/>
		<polygon class="st1" points="363.9,367.2 382.6,385.9 192.5,385.9 192.5,405.9 382.6,405.9 363.9,424.6 378.1,438.7 420.9,395.9 
			378.1,353.1 		"/>
		<rect x="54.1" y="317.3" class="st1" width="20" height="20"/>
		<rect x="343.7" y="222.1" class="st1" width="20" height="20"/>
		<rect x="148.3" y="222.1" class="st1" width="175.4" height="20"/>
		<rect x="148.3" y="119.8" class="st1" width="20" height="20"/>
		<rect x="188.3" y="119.8" class="st1" width="175.4" height="20"/>
	</g>
</g>
</svg>
