<?xml version="1.0" encoding="utf-8"?>
<!-- Generator: Adobe Illustrator 24.0.1, SVG Export Plug-In . SVG Version: 6.00 Build 0)  -->
<svg version="1.1" id="Layer_1" xmlns="http://www.w3.org/2000/svg" xmlns:xlink="http://www.w3.org/1999/xlink" x="0px" y="0px"
	 viewBox="0 0 512 512" style="enable-background:new 0 0 512 512;" xml:space="preserve">
<style type="text/css">
	.st0{fill:#FEC700;}
	.st1{fill:#E6E6E6;}
	.st2{fill:#4D5152;}
</style>
<g>
	<rect x="266" y="333.6" class="st0" width="137.5" height="100.9"/>
	<polygon class="st0" points="108.5,202.7 128.5,202.7 128.5,212.7 246,212.7 246,313.6 108.5,313.6 	"/>
	<polygon class="st1" points="403.5,155.6 343.5,155.6 343.5,145.6 108.5,145.6 108.5,77.4 403.5,77.4 	"/>
	<path class="st2" d="M38.7,10v492h434.7V10H38.7z M453.3,482H58.7V30h394.7V482z"/>
	<polygon class="st2" points="343.5,145.6 108.5,145.6 108.5,77.4 403.5,77.4 403.5,165.6 423.5,165.6 423.5,57.4 88.5,57.4 
		88.5,165.6 343.5,165.6 	"/>
	<path class="st2" d="M423.5,192.7h-295v20H246v100.9H108.5V192.7h-20v261.8h335V192.7z M246,434.6H108.5V333.6H246V434.6z
		 M403.5,434.6H266V333.6h137.5V434.6z M403.5,313.6H266V212.7h137.5V313.6z"/>
	<polygon class="st2" points="167.2,228.5 167.2,253.2 142.5,253.2 142.5,273.2 167.2,273.2 167.2,297.9 187.2,297.9 187.2,273.2 
		212,273.2 212,253.2 187.2,253.2 187.2,228.5 	"/>
	<rect x="300" y="253.2" class="st2" width="69.5" height="20"/>
	
		<rect x="300" y="374.1" transform="matrix(0.7071 -0.7071 0.7071 0.7071 -173.5555 349.2119)" class="st2" width="69.5" height="20"/>
	<polygon class="st2" points="159.8,415.7 177.2,398.2 194.7,415.7 208.9,401.6 191.4,384.1 208.9,366.6 194.7,352.5 177.2,370 
		159.8,352.5 145.6,366.6 163.1,384.1 145.6,401.6 	"/>
	
		<rect x="304.5" y="353.8" transform="matrix(0.7071 -0.7071 0.7071 0.7071 -165.0679 328.7214)" class="st2" width="19.6" height="19.6"/>
	
		<rect x="345.5" y="394.8" transform="matrix(0.7071 -0.7071 0.7071 0.7071 -182.0429 369.7026)" class="st2" width="19.6" height="19.6"/>
	<rect x="363.5" y="145.6" class="st2" width="20" height="20"/>
	<rect x="128.5" y="101.5" class="st2" width="20" height="20"/>
	<rect x="168.5" y="101.6" class="st2" width="215" height="20"/>
</g>
</svg>
