<?xml version="1.0" encoding="utf-8"?>
<!-- Generator: Adobe Illustrator 24.0.1, SVG Export Plug-In . SVG Version: 6.00 Build 0)  -->
<svg version="1.1" id="Layer_1" xmlns="http://www.w3.org/2000/svg" xmlns:xlink="http://www.w3.org/1999/xlink" x="0px" y="0px"
	 viewBox="0 0 512 512" style="enable-background:new 0 0 512 512;" xml:space="preserve">
<style type="text/css">
	.st0{fill:#E6E6E6;}
	.st1{fill:#FEC700;}
	.st2{fill:#4D5152;}
</style>
<g>
	<path class="st0" d="M31.8,122.8h372.1v10h76.3V56.9h-11.4c-2.5,20.6-20.2,36.7-41.5,36.7c-19.6,0-36.1-13.6-40.6-31.8h-33.1
		c-4.5,18.2-21,31.8-40.6,31.8S277,80,272.6,61.8h-33.1c-4.5,18.2-21,31.8-40.6,31.8S162.8,80,158.3,61.8h-33.1
		c-4.5,18.2-21,31.8-40.6,31.8c-21.3,0-38.9-16-41.5-36.7H31.8V122.8z"/>
	<polygon class="st1" points="78.1,439 78.1,419.2 88.1,419.2 88.1,185.8 423.9,185.8 423.9,439 	"/>
	<g>
		<polygon class="st2" points="269,341.7 284.2,326.5 299.4,341.7 313.5,327.5 298.3,312.4 313.5,297.2 299.4,283.1 284.2,298.2 
			269,283.1 254.9,297.2 270.1,312.4 254.9,327.5 		"/>
		<rect x="387" y="205.6" class="st2" width="20" height="20"/>
		<rect x="330.6" y="205.6" class="st2" width="20" height="20"/>
		<rect x="274.2" y="205.6" class="st2" width="20" height="20"/>
		<rect x="217.8" y="205.6" class="st2" width="20" height="20"/>
		<rect x="161.4" y="205.6" class="st2" width="20" height="20"/>
		<rect x="105" y="205.6" class="st2" width="20" height="20"/>
		<rect x="387" y="254" class="st2" width="20" height="20"/>
		<rect x="330.6" y="254" class="st2" width="20" height="20"/>
		<rect x="274.2" y="254" class="st2" width="20" height="20"/>
		<rect x="217.8" y="254" class="st2" width="20" height="20"/>
		<rect x="161.4" y="254" class="st2" width="20" height="20"/>
		<rect x="105" y="254" class="st2" width="20" height="20"/>
		<rect x="387" y="302.4" class="st2" width="20" height="20"/>
		<rect x="330.6" y="302.4" class="st2" width="20" height="20"/>
		<rect x="217.8" y="302.4" class="st2" width="20" height="20"/>
		<rect x="161.4" y="302.4" class="st2" width="20" height="20"/>
		<rect x="105" y="302.4" class="st2" width="20" height="20"/>
		<rect x="387" y="350.8" class="st2" width="20" height="20"/>
		<rect x="330.6" y="350.8" class="st2" width="20" height="20"/>
		<rect x="274.2" y="350.8" class="st2" width="20" height="20"/>
		<rect x="217.8" y="350.8" class="st2" width="20" height="20"/>
		<rect x="161.4" y="350.8" class="st2" width="20" height="20"/>
		<rect x="105" y="350.8" class="st2" width="20" height="20"/>
		<rect x="387" y="399.2" class="st2" width="20" height="20"/>
		<rect x="330.6" y="399.2" class="st2" width="20" height="20"/>
		<rect x="274.2" y="399.2" class="st2" width="20" height="20"/>
		<rect x="217.8" y="399.2" class="st2" width="20" height="20"/>
		<rect x="161.4" y="399.2" class="st2" width="20" height="20"/>
		<rect x="105" y="399.2" class="st2" width="20" height="20"/>
		<path class="st2" d="M423,36.9v20h25.5c-2.3,9.5-10.9,16.7-21.2,16.7c-12,0-21.8-9.8-21.8-21.8S415.3,30,427.4,30V10
			c-19.6,0-36.1,13.6-40.6,31.8h-73.7v20h19.3c-3.6,7-10.9,11.8-19.3,11.8c-12,0-21.8-9.8-21.8-21.8S301.1,30,313.1,30V10
			c-19.6,0-36.1,13.6-40.6,31.8h-73.7v20h19.3c-3.6,7-10.9,11.8-19.3,11.8c-12,0-21.8-9.8-21.8-21.8S186.9,30,198.9,30V10
			c-19.6,0-36.1,13.6-40.6,31.8H84.6v20H104c-3.6,7-10.9,11.8-19.3,11.8c-12,0-21.8-9.8-21.8-21.8S72.6,30,84.6,30V10
			c-17.8,0-33,11.2-39,26.9H11.8V502h488.4V36.9H423z M480.2,482H31.8V142.8h372.1v-20H31.8V56.9h11.4c2.5,20.6,20.2,36.7,41.5,36.7
			c19.6,0,36.1-13.6,40.6-31.8h33.1c4.5,18.2,21,31.8,40.6,31.8S235,80,239.4,61.8h33.1c4.5,18.2,21,31.8,40.6,31.8
			s36.1-13.6,40.6-31.8h33.1c4.5,18.2,21,31.8,40.6,31.8c21.3,0,38.9-16,41.5-36.7h11.4V482z"/>
		<polygon class="st2" points="68.1,419.2 88.1,419.2 88.1,185.8 423.9,185.8 423.9,439 68.1,439 68.1,459 443.9,459 443.9,165.8 
			68.1,165.8 		"/>
		<rect x="423.9" y="122.8" class="st2" width="20" height="20"/>
	</g>
</g>
</svg>
