<?xml version="1.0" encoding="utf-8"?>
<!-- Generator: Adobe Illustrator 24.0.1, SVG Export Plug-In . SVG Version: 6.00 Build 0)  -->
<svg version="1.1" id="Layer_1" xmlns="http://www.w3.org/2000/svg" xmlns:xlink="http://www.w3.org/1999/xlink" x="0px" y="0px"
	 viewBox="0 0 512 512" style="enable-background:new 0 0 512 512;" xml:space="preserve">
<style type="text/css">
	.st0{fill:#E6E6E6;}
	.st1{fill:#4D5152;}
	.st2{fill:#FEC700;}
</style>
<g>
	<polygon class="st0" points="442,70 70,70 70,358.7 193.3,235.4 240.6,282.7 342.8,180.6 442,279.8 	"/>
	<path class="st1" d="M10,10v492h492V10H10z M482,482H30V30h452V482z"/>
	<path class="st1" d="M462,50H50v372h412V50z M442,402H70v-15l95-95l49.2,49.2l14.1-14.1l-49.2-49.2l14.1-14.1l113.9,113.9
		l14.1-14.1l-66.6-66.6l59.7-59.7l49.2,49.2l14.1-14.1L328.6,223l14.1-14.1l99.2,99.2V402z M133.5,231.2
		c3.3-41.6,39.8-72.8,81.4-69.5c40.1,3.2,70.6,37.3,69.7,77l-44,44l-47.3-47.3l-45.8,45.8C137.1,266.8,132.1,249.1,133.5,231.2z
		 M442,279.8l-99.2-99.2l-39.7,39.7c-7.5-41.8-42.4-75-86.7-78.4c-52.6-4.1-98.7,35.3-102.9,87.9c-1.9,23.7,5.2,47.2,19.6,65.9
		L70,358.7V70h372V279.8z"/>
	<path class="st2" d="M133.5,231.2c3.3-41.6,39.8-72.8,81.4-69.5c40.1,3.2,70.6,37.3,69.7,77l-44,44l-47.3-47.3l-45.8,45.8
		C137.1,266.8,132.1,249.1,133.5,231.2z"/>
	
		<rect x="200.3" y="110.2" transform="matrix(1.860393e-02 -0.9998 0.9998 1.860393e-02 87.065 329.0268)" class="st1" width="21.6" height="20"/>
	
		<rect x="142.3" y="123.9" transform="matrix(0.8752 -0.4838 0.4838 0.8752 -46.1902 90.4939)" class="st1" width="20" height="21.6"/>
	<rect x="98.6" y="166" transform="matrix(0.516 -0.8566 0.8566 0.516 -98.9044 178.6225)" class="st1" width="20" height="21.6"/>
	
		<rect x="81.8" y="224.3" transform="matrix(1.863815e-02 -0.9998 0.9998 1.863815e-02 -144.9393 322.5387)" class="st1" width="20" height="21.6"/>
	
		<rect x="95.6" y="284" transform="matrix(0.8752 -0.4838 0.4838 0.8752 -128.9265 88.1807)" class="st1" width="21.6" height="20"/>
	
		<rect x="258.6" y="126.9" transform="matrix(0.5161 -0.8565 0.8565 0.5161 13.0733 297.0294)" class="st1" width="21.6" height="20"/>
	
		<rect x="300.7" y="170.6" transform="matrix(0.8752 -0.4838 0.4838 0.8752 -48.5016 173.2291)" class="st1" width="21.6" height="20"/>
	<rect x="382" y="290.5" transform="matrix(0.7071 -0.7071 0.7071 0.7071 -97.6712 365.1754)" class="st1" width="20" height="20"/>
	
		<rect x="232.5" y="345.3" transform="matrix(0.7071 -0.7071 0.7071 0.7071 -180.224 275.5514)" class="st1" width="20" height="20"/>
</g>
</svg>
