<?xml version="1.0" encoding="utf-8"?>
<!-- Generator: Adobe Illustrator 24.0.1, SVG Export Plug-In . SVG Version: 6.00 Build 0)  -->
<svg version="1.1" id="Layer_1" xmlns="http://www.w3.org/2000/svg" xmlns:xlink="http://www.w3.org/1999/xlink" x="0px" y="0px"
	 viewBox="0 0 512 512" style="enable-background:new 0 0 512 512;" xml:space="preserve">
<style type="text/css">
	.st0{fill:#FEC700;}
	.st1{fill:#E6E6E6;}
	.st2{fill:#FFFFFF;}
	.st3{fill:#4D5152;}
</style>
<g>
	<polygon class="st0" points="190.3,90.9 174.3,128.3 226,128.3 226,138.3 286,138.3 286,128.3 337.7,128.3 321.7,90.9 	"/>
	<path class="st1" d="M147.4,294.7H70v-20h77.4c-0.3,3.3-0.5,6.6-0.5,10S147.1,291.4,147.4,294.7z M364.6,274.7H442v20h-77.4
		c0.3-3.3,0.5-6.7,0.5-10C365,281.3,364.9,278,364.6,274.7z"/>
	<circle class="st0" cx="256" cy="284.7" r="98.9"/>
	<circle class="st2" cx="256" cy="284.7" r="59.1"/>
	<path class="st3" d="M256,313.7c16,0,29-13,29-29c0-16-13-29-29-29c-16,0-29,13-29,29C227,300.7,240,313.7,256,313.7z M256,275.7
		c5,0,9,4,9,9s-4,9-9,9s-9-4-9-9S251,275.7,256,275.7z"/>
	<path class="st0" d="M384.9,180.5c5.5,0,10,4.5,10,10c0,5.5-4.5,10-10,10s-10-4.5-10-10C374.9,185,379.4,180.5,384.9,180.5z"/>
	<path class="st3" d="M384.9,160.5c-16.5,0-30,13.5-30,30c0,16.5,13.5,30,30,30s30-13.5,30-30C414.9,174,401.4,160.5,384.9,160.5z
		 M384.9,200.5c-5.5,0-10-4.5-10-10c0-5.5,4.5-10,10-10s10,4.5,10,10C394.9,196,390.4,200.5,384.9,200.5z"/>
	<path class="st3" d="M359.4,128.3l-24.5-57.4H177.1l-24.5,57.4h-19.3v-40H54.1v40H10v312.8h492V128.3H359.4z M74.1,108.3h39.2v20
		H74.1V108.3z M30,219.4h20V350H30V219.4z M482,421.1H30V370h40v-55.3h81.2c13.1,45.6,55.1,79,104.8,79c17.4,0,34.8-4.2,50.1-12.2
		l-9.2-17.8c-12.7,6.6-26.5,9.9-40.9,9.9c-49.1,0-89-39.9-89-89s39.9-89,89-89s89,39.9,89,89c0,14.4-3.3,28.2-9.9,40.9l17.8,9.2
		c3.3-6.4,6-13.2,8-20.1H442V370h40V421.1z M147.4,294.7H70v-20h77.4c-0.3,3.3-0.5,6.6-0.5,10S147.1,291.4,147.4,294.7z
		 M364.6,274.7H442v20h-77.4c0.3-3.3,0.5-6.7,0.5-10C365,281.3,364.9,278,364.6,274.7z M482,350h-20V219.4h20V350z M482,199.4h-40
		v55.3h-81.2c-13.1-45.6-55.1-79-104.8-79c-49.7,0-91.8,33.4-104.8,79H70v-55.3H30v-51.1h196v-20h-51.7l16-37.4h131.5l16,37.4H286
		v20h196V199.4z"/>
	<rect x="246" y="128.3" class="st3" width="20" height="20"/>
	<path class="st3" d="M312.3,353.7l12.7,15.5c5.7-4.6,10.9-9.9,15.6-15.6L325,340.9C321.2,345.6,316.9,349.9,312.3,353.7z"/>
	<path class="st3" d="M256,215.7c-5.8,0-11.6,0.7-17.2,2.2l5,19.4c4-1,8.1-1.5,12.2-1.5c27,0,49,22,49,49c0,27-22,49-49,49
		c-27,0-49-22-49-49c0-4.1,0.5-8.3,1.5-12.2l-19.4-5c-1.4,5.6-2.2,11.4-2.2,17.2c0,38.1,31,69,69,69s69-31,69-69
		S294.1,215.7,256,215.7z"/>
	<path class="st3" d="M227.7,244.7l-11.6-16.3c-6.4,4.5-12,10.1-16.5,16.5l16.3,11.6C219.2,251.9,223.2,247.9,227.7,244.7z"/>
</g>
</svg>
