<?xml version="1.0" encoding="utf-8"?>
<!-- Generator: Adobe Illustrator 24.0.1, SVG Export Plug-In . SVG Version: 6.00 Build 0)  -->
<svg version="1.1" id="Layer_1" xmlns="http://www.w3.org/2000/svg" xmlns:xlink="http://www.w3.org/1999/xlink" x="0px" y="0px"
	 viewBox="0 0 512 512" style="enable-background:new 0 0 512 512;" xml:space="preserve">
<style type="text/css">
	.st0{fill:#FEC700;}
	.st1{fill:#4D5152;}
	.st2{fill:#E6E6E6;}
</style>
<g>
	<path class="st0" d="M187.2,362.1c22.7,5.4,45.9,8.2,68.8,8.2c40.5,0,81.5-8.6,119.3-25.1c-26-39.6-38.7-90.9-38.7-156.4
		c0-46-34.7-80.6-80.6-80.6c-46,0-80.6,34.7-80.6,80.6c0,71.1-14.6,125.1-45.6,166.2c0,0,26,9,54.6,18.6L187.2,362.1z"/>
	<path class="st1" d="M319.2,229.6c-0.6-6.3-1-12.9-1.3-19.5l-20,0.9c0.3,6.9,0.7,13.8,1.3,20.5L319.2,229.6z"/>
	<path class="st1" d="M300,144.8c-11.3-11.3-26.9-17.5-44-17.5v20c24.4,0,41.5,17.1,41.5,41.5l0,1.8l20-0.1l0-1.7
		C317.5,171.7,311.3,156.1,300,144.8z"/>
	<path class="st1" d="M119.2,32.3l-8.3-18.2C49.6,42.3,10,104,10,171.4c0,25.2,5.3,49.6,15.8,72.3l18.2-8.4
		c-9.3-20.1-14-41.6-14-63.9C30,111.8,65,57.2,119.2,32.3z"/>
	<path class="st1" d="M98.9,210.1c-5.6-12.2-8.5-25.2-8.5-38.8c0-36,21.1-69,53.8-84l-8.4-18.2c-39.8,18.3-65.5,58.4-65.5,102.2
		c0,16.5,3.5,32.3,10.3,47.2L98.9,210.1z"/>
	<path class="st1" d="M401.1,14.2l-8.3,18.2c54.2,24.9,89.2,79.4,89.2,139c0,22.3-4.7,43.8-14,63.9l18.2,8.4
		c10.5-22.7,15.8-47.1,15.8-72.3C502,104,462.4,42.3,401.1,14.2z"/>
	<path class="st1" d="M376.1,69.2l-8.4,18.2c32.7,15.1,53.8,48,53.8,84c0,13.5-2.9,26.6-8.5,38.8l18.2,8.4
		c6.9-14.8,10.3-30.7,10.3-47.2C441.6,127.6,415.9,87.5,376.1,69.2z"/>
	<path class="st2" d="M256,477.8c-30.5,0-55.5-23.4-58.1-53.2c19.2,3.2,38.7,4.9,58.1,4.9c19.4,0,38.9-1.6,58.1-4.9
		C311.5,454.4,286.5,477.8,256,477.8z"/>
	<path class="st1" d="M413.9,370.1C365,395.9,310.4,409.5,256,409.5c-49.7,0-99.6-11.3-145.1-32.9c43.9-43.4,64.4-103.5,64.4-187.8
		c0-46,34.7-80.6,80.6-80.6c46,0,80.6,34.7,80.6,80.6c0,65.5,12.7,116.8,38.7,156.4c-37.8,16.4-78.8,25.1-119.3,25.1
		c-23,0-46.1-2.8-68.8-8.2l-4.7,19.5c24.2,5.8,49,8.7,73.5,8.7c47.4,0,95.3-11,138.7-32l11.2-5.2l-7.5-9.9
		c-28.5-37.8-41.8-86.8-41.8-154.5c0-27.8-10.5-53.4-29.5-72.1c-6.3-6.2-13.3-11.4-20.8-15.6c0.1-1,0.1-1.9,0.1-2.9
		c0-27.8-22.6-50.4-50.4-50.4s-50.4,22.6-50.4,50.4c0,1,0,1.9,0.1,2.9c-7.6,4.2-14.6,9.5-20.8,15.6c-19,18.7-29.5,44.3-29.5,72.1
		c0,84.7-21.7,142.7-68.4,182.6L75.8,381l13,6.9c28.1,14.8,58.1,25.8,88.8,32.8c0.6,42.7,35.5,77.2,78.4,77.2s77.7-34.5,78.4-77.2
		c30.7-7,60.7-18,88.8-32.8L413.9,370.1z M256,67.8c14.8,0,27.1,10.6,29.8,24.7c-9.5-2.8-19.5-4.3-29.8-4.3
		c-10.3,0-20.3,1.5-29.8,4.3C228.9,78.4,241.2,67.8,256,67.8z M256,477.8c-30.5,0-55.5-23.4-58.1-53.2c19.2,3.2,38.7,4.9,58.1,4.9
		s38.9-1.6,58.1-4.9C311.5,454.4,286.5,477.8,256,477.8z"/>
	<path class="st1" d="M162.2,376l5.9-19.1c-6.2-1.9-12.4-4.1-18.5-6.4l-7.1,18.7C148.9,371.6,155.6,373.9,162.2,376z"/>
</g>
</svg>
