<?xml version="1.0" encoding="utf-8"?>
<!-- Generator: Adobe Illustrator 24.0.1, SVG Export Plug-In . SVG Version: 6.00 Build 0)  -->
<svg version="1.1" id="Layer_1" xmlns="http://www.w3.org/2000/svg" xmlns:xlink="http://www.w3.org/1999/xlink" x="0px" y="0px"
	 viewBox="0 0 512 512" style="enable-background:new 0 0 512 512;" xml:space="preserve">
<style type="text/css">
	.st0{fill:#4D5152;}
	.st1{fill:#FEC700;}
</style>
<g>
	<path class="st0" d="M422.4,103.1l14.7-13.5c-4.7-5.1-9.6-10.1-14.7-14.7l-13.5,14.7C413.6,93.9,418.1,98.4,422.4,103.1z"/>
	<path class="st0" d="M450.7,105.6l-15.8,12.2C465.7,157.7,482,205.5,482,256c0,50.5-16.3,98.3-47.2,138.2l15.8,12.2
		C484.2,363,502,311,502,256C502,201,484.2,149,450.7,105.6z"/>
	<path class="st0" d="M408.9,422.4l13.5,14.7c5.1-4.7,10.1-9.6,14.7-14.7l-14.7-13.5C418.1,413.6,413.6,418.1,408.9,422.4z"/>
	<path class="st0" d="M462,256c0-3.5-0.1-7-0.3-10.5l-20,1c0.2,3.1,0.2,6.3,0.2,9.5c0,3.2-0.1,6.4-0.2,9.5l20,1
		C461.9,263,462,259.5,462,256z"/>
	<path class="st0" d="M256,482c-50.5,0-98.3-16.3-138.2-47.2l-12.2,15.8C149,484.2,201,502,256,502s107-17.8,150.4-51.3l-12.2-15.8
		C354.3,465.7,306.5,482,256,482z"/>
	<path class="st0" d="M256,30c50.5,0,98.3,16.3,138.2,47.2l12.2-15.8C363,27.8,311,10,256,10S149,27.8,105.6,61.3l12.2,15.8
		C157.7,46.3,205.5,30,256,30z"/>
	<path class="st0" d="M103.1,89.6L89.6,74.8c-5.1,4.7-10.1,9.6-14.7,14.7l14.7,13.5C93.9,98.4,98.4,93.9,103.1,89.6z"/>
	<path class="st0" d="M30,256c0-50.5,16.3-98.3,47.2-138.2l-15.8-12.2C27.8,149,10,201,10,256s17.8,107,51.3,150.4l15.8-12.2
		C46.3,354.3,30,306.5,30,256z"/>
	<path class="st0" d="M89.6,408.9l-14.7,13.5c4.7,5.1,9.6,10.1,14.7,14.7l13.5-14.7C98.4,418.1,93.9,413.6,89.6,408.9z"/>
	<path class="st1" d="M200.5,382.8c13-12.9,18.8-28.2,18.8-49.8c0-24.4-23.7-56.9-26.5-60.5l-2.9-3.9l-4.4-0.1
		c-2.8-0.7-9.9-6.9-11.6-28.4c0.1-6.7,2.3-9.1,2.9-9.6l6.6-3l-1.4-7.7c0-0.2-4.1-22-5.7-38.5c-0.7-7.8,1.6-26.7,15.7-42.2
		c14.1-15.5,35.6-23.3,64.1-23.3s50,7.8,64.1,23.3c14.1,15.5,16.4,34.4,15.7,42.2c-1.6,16.5-5.6,38.3-5.7,38.5l-1.4,7.7l6.6,3
		c0.6,0.5,2.8,2.8,2.9,9.6c-1.7,21.5-8.8,27.7-11.6,28.4l-4.4,0.1l-2.9,3.9c-2.7,3.6-26.4,36.1-26.4,60.5c0,21.6,5.8,36.9,18.8,49.8
		c10.1,10,24.7,18.6,47.5,27.7c-29.8,20-65.4,31.6-103,31.6c-37.6,0-73.2-11.6-103-31.6C175.8,401.3,190.4,392.8,200.5,382.8z"/>
	<path class="st0" d="M439.9,284.3c-6.8,44.6-29.7,83.7-62.2,111.9c-55.9-20.4-65-35.5-65-63.2c0-13.6,13.2-35.3,20.4-45.6
		c8.3-2.7,22.5-12.4,25.1-46.2l0-0.8c0-11.3-3.7-18.4-7.4-22.6c1.4-7.8,3.7-22.4,4.9-34.7c1.4-14.5-3.2-38.3-20.8-57.6
		C322.5,112,298.8,95.8,256,95.8c-42.8,0-66.5,16.2-78.9,29.9c-17.5,19.3-22.2,43.1-20.8,57.6c1.2,12.3,3.5,26.8,4.9,34.6
		c-3.6,4.2-7.4,11.2-7.4,22.6l0,0.8c2.6,33.8,16.8,43.4,25,46.2c7.2,10.3,20.4,32,20.4,45.6c0,27.7-9.1,42.8-65,63.2
		C101.9,368,79,328.9,72.1,284.3l-19.8,3c7.4,48.1,31.8,92.3,68.9,124.4C158.7,444.1,206.5,462,256,462s97.3-17.9,134.7-50.3
		c37-32.1,61.5-76.3,68.9-124.4L439.9,284.3z M256,442c-37.6,0-73.2-11.6-103-31.6c22.8-9.1,37.4-17.6,47.5-27.7
		c13-12.9,18.8-28.2,18.8-49.8c0-24.4-23.7-56.9-26.5-60.5l-2.9-3.9l-4.4-0.1c-2.8-0.7-9.9-6.9-11.6-28.4c0.1-6.7,2.3-9.1,2.9-9.6
		l6.6-3l-1.4-7.7c0-0.2-4.1-22-5.7-38.5c-0.7-7.8,1.6-26.7,15.7-42.2c14.1-15.5,35.6-23.3,64.1-23.3s50,7.8,64.1,23.3
		c14.1,15.5,16.4,34.4,15.7,42.2c-1.6,16.5-5.6,38.3-5.7,38.5l-1.4,7.7l6.6,3c0.6,0.5,2.8,2.8,2.9,9.6c-1.7,21.5-8.8,27.7-11.6,28.4
		l-4.4,0.1l-2.9,3.9c-2.7,3.6-26.4,36.1-26.4,60.5c0,21.6,5.8,36.9,18.8,49.8c10.1,10,24.7,18.6,47.5,27.7
		C329.2,430.4,293.6,442,256,442z"/>
	<path class="st0" d="M50.3,245.5c-0.2,3.5-0.3,7-0.3,10.5c0,3.5,0.1,7,0.3,10.5l20-1c-0.2-3.1-0.2-6.3-0.2-9.5
		c0-3.2,0.1-6.4,0.2-9.5L50.3,245.5z"/>
	<path class="st0" d="M390.7,100.2C353.3,67.8,305.4,50,256,50c-49.4,0-97.3,17.8-134.7,50.2c-37,32.1-61.5,76.2-68.9,124.2l19.8,3
		C86,137.7,165.1,70,256,70c90.9,0,170,67.7,183.8,157.5l19.8-3C452.2,176.4,427.7,132.3,390.7,100.2z"/>
</g>
</svg>
