<?xml version="1.0" encoding="utf-8"?>
<!-- Generator: Adobe Illustrator 24.0.1, SVG Export Plug-In . SVG Version: 6.00 Build 0)  -->
<svg version="1.1" id="Layer_1" xmlns="http://www.w3.org/2000/svg" xmlns:xlink="http://www.w3.org/1999/xlink" x="0px" y="0px"
	 viewBox="0 0 512 512" style="enable-background:new 0 0 512 512;" xml:space="preserve">
<style type="text/css">
	.st0{fill:#FEC700;}
	.st1{fill:#4D5152;}
</style>
<g>
	<circle class="st0" cx="256" cy="256" r="91.2"/>
	<path class="st1" d="M497.1,216.6l-1.1-6.2l-32-9l23.9-24.6l-2.2-5.9c-4.8-12.9-10.7-25.4-17.5-37.3c-6.9-11.9-14.8-23.3-23.6-33.8
		l-4-4.9l-29.7,7.6l7.6-29.7l-4.9-4c-10.6-8.8-22-16.7-33.8-23.6c-11.9-6.9-24.5-12.8-37.3-17.5l-5.9-2.2l-23.8,23.2l-9.3-33
		l-6.2-1.1C283.6,12.2,269.7,11,256,11s-27.6,1.2-41.1,3.5l-6.2,1.1l-8.3,29.5l-22-21.4l-5.9,2.2c-12.9,4.8-25.4,10.7-37.3,17.5
		c-11.9,6.9-23.3,14.8-33.8,23.6l-4.9,4l8.2,32.3l-33.2-8.4l-4,4.9c-8.8,10.6-16.7,22-23.6,33.8c-6.9,11.9-12.8,24.5-17.5,37.3
		l-2.2,5.9l21.4,22L16,207l-1.1,6.2c-2.3,13.5-3.5,27.4-3.5,41.1c0,13.7,1.2,27.6,3.5,41.1l1.1,6.2l32,9l-23.9,24.6l2.2,5.9
		c4.8,12.9,10.7,25.4,17.5,37.3c6.9,11.9,14.8,23.3,23.6,33.8l4,4.9l29.7-7.6l-7.6,29.7l4.9,4c10.6,8.8,22,16.7,33.8,23.6
		c11.9,6.9,24.5,12.8,37.3,17.5l5.9,2.2l23.8-23.2l9.3,33l6.2,1.1c13.5,2.3,27.4,3.5,41.1,3.5c13.7,0,27.6-1.2,41.1-3.5l6.2-1.1
		l8.3-29.5l22,21.4l5.9-2.2c12.9-4.8,25.4-10.7,37.3-17.5c11.9-6.9,23.3-14.8,33.8-23.6l4.9-4l-8.2-32.3l33.2,8.4l4-4.9
		c8.8-10.6,16.7-21.9,23.6-33.8s12.8-24.5,17.5-37.3l2.2-5.9l-21.4-22L496,305l1.1-6.2c2.3-13.5,3.5-27.4,3.5-41.1
		C500.6,243.9,499.4,230.1,497.1,216.6z M478.3,289.2l-48.8,13.7l5.4,19.3l9.6-2.7l20.1,20.6c-3.9,9.8-8.6,19.3-13.8,28.4
		c-5.3,9.1-11.2,17.9-17.7,26.2l-31.4-8l-4.9-19.5l-19.4,4.9l15.6,61.5c-8.3,6.5-17.1,12.4-26.2,17.7s-18.6,9.9-28.4,13.8
		l-36.3-35.4l-14,14.3l7.1,7l-7.8,27.7c-20.9,3-42.2,3-63,0l-8.8-31.2l14.4-14l-14-14.3l-45.4,44.3c-9.8-3.9-19.3-8.6-28.4-13.8
		c-9.1-5.3-17.9-11.2-26.2-17.7l12.5-49.1l-19.4-4.9l-2.5,9.7l-27.9,7.1c-6.5-8.3-12.4-17.1-17.7-26.2c-5.3-9.1-9.9-18.6-13.8-28.4
		l22.6-23.2l19.3,5.5l5.4-19.3l-61-17.2c-1.5-10.4-2.2-21-2.2-31.5c0-10.5,0.8-21.1,2.2-31.5l48.8-13.7L77,189.8l-9.6,2.7
		l-20.1-20.6c3.9-9.8,8.6-19.3,13.8-28.4c5.3-9.1,11.2-17.9,17.7-26.2l31.4,8l4.9,19.5l19.4-4.9L119,78.4
		c8.3-6.5,17.1-12.4,26.2-17.7c9.1-5.3,18.6-9.9,28.4-13.8l36.3,35.4l14-14.3l-7.1-7l7.8-27.7c20.9-3,42.2-3,63,0l8.8,31.2l-14.4,14
		l14,14.3l45.4-44.3c9.8,3.9,19.3,8.6,28.4,13.8c9.1,5.3,17.9,11.2,26.2,17.7l-12.5,49.1l19.4,4.9l2.5-9.7l27.9-7.1
		c6.5,8.3,12.4,17.1,17.7,26.2c5.3,9.1,9.9,18.6,13.8,28.4l-22.6,23.2l-19.3-5.5l-5.4,19.3l61,17.2c1.5,10.4,2.2,21,2.2,31.5
		S479.8,278.7,478.3,289.2z"/>
	<path class="st1" d="M154.9,256c0,55.7,45.4,101.1,101.1,101.1S357.1,311.7,357.1,256S311.7,154.9,256,154.9
		c-15.3,0-30,3.3-43.7,9.9l8.7,18c11-5.3,22.8-8,35-8c44.7,0,81.1,36.4,81.1,81.1s-36.4,81.1-81.1,81.1s-81.1-36.4-81.1-81.1
		c0-12.4,2.7-24.3,8.1-35.3l-18-8.7C158.3,225.7,154.9,240.6,154.9,256z"/>
	<path class="st1" d="M205.4,192.7l-12.5-15.6c-5.8,4.6-11.1,9.9-15.8,15.7l15.6,12.5C196.5,200.6,200.7,196.4,205.4,192.7z"/>
	<path class="st1" d="M256,114.9c-77.8,0-141.1,63.3-141.1,141.1S178.2,397.1,256,397.1c26.4,0,52.1-7.3,74.4-21.2l-10.6-17
		c-19.1,11.9-41.2,18.2-63.9,18.2c-66.8,0-121.1-54.3-121.1-121.1c0-66.8,54.3-121.1,121.1-121.1c66.8,0,121.1,54.3,121.1,121.1
		c0,22.6-6.3,44.6-18.1,63.7l17,10.5c13.8-22.3,21.1-47.9,21.1-74.2C397.1,178.2,333.8,114.9,256,114.9z"/>
	<path class="st1" d="M334.9,347.9l13,15.2c5.4-4.7,10.5-9.8,15.2-15.2l-15.2-13C344,339.4,339.6,343.8,334.9,347.9z"/>
</g>
</svg>
