<?xml version="1.0" encoding="utf-8"?>
<!-- Generator: Adobe Illustrator 24.0.1, SVG Export Plug-In . SVG Version: 6.00 Build 0)  -->
<svg version="1.1" id="Layer_1" xmlns="http://www.w3.org/2000/svg" xmlns:xlink="http://www.w3.org/1999/xlink" x="0px" y="0px"
	 viewBox="0 0 512 512" style="enable-background:new 0 0 512 512;" xml:space="preserve">
<style type="text/css">
	.st0{fill:#E6E6E6;}
	.st1{fill:#FEC700;}
	.st2{fill:#4D5152;}
</style>
<g>
	
		<rect x="138.4" y="33.6" transform="matrix(0.7071 -0.7071 0.7071 0.7071 -24.8489 134.9405)" class="st0" width="24.2" height="127.7"/>
	
		<rect x="402.5" y="297.7" transform="matrix(0.7071 -0.7071 0.7071 0.7071 -134.2375 399.0164)" class="st0" width="24.2" height="127.7"/>
	<path class="st1" d="M214.8,297.4c29,28,58.9,50.3,83.1,62.2l-15.5,15.5l14.1,14.1l26-26l42.4,42.4l-7.1,7.1l47.9,47.9l-15.9,15.9
		c-19.3,0.8-115.7-1.8-234.2-120.2C37.3,237.8,34.7,141.3,35.5,122.1l15.8-15.8l47.9,47.9l7.1-7.1l42.4,42.4l-4.4,4.4l2,5.9
		c8.8,26,34.3,62.4,68.2,97.4"/>
	<g>
		<path class="st2" d="M92.6,178l-19,6.4C85.4,219.5,112.6,274.5,175,337c13.5,13.5,27.3,26,41.2,37.2l12.6-15.5
			c-13.3-10.8-26.6-22.9-39.6-35.9C129.5,263.2,103.7,211.1,92.6,178z"/>
		<path class="st2" d="M377.9,279.6l-65,65c-22.7-9.6-54.2-32.5-84.1-61.4C200,253.3,177,221.7,167.5,199l65-65L128.6,30.2
			l-14.7-14.8l-97.6,97.6l-0.4,3.5c-0.3,3.2-2.9,33,11.6,78.6c19,59.5,57.4,118.4,114.1,175.2c56.7,56.7,115.7,95.1,175.2,114.1
			c32.3,10.3,56.6,12,69.2,12c5.2,0,8.4-0.3,9.4-0.4l3.5-0.4l97.6-97.6L377.9,279.6z M113.8,43.8l90.3,90.3l-17.1,17.1L96.8,60.9
			L113.8,43.8z M419.9,446.5L372,398.6l-14.1,14.1l47.9,47.9l-15.9,15.9c-19.3,0.8-115.7-1.8-234.2-120.2
			C37.3,237.8,34.7,141.3,35.5,122.1l15.8-15.8l47.9,47.9l14.1-14.1L65.5,92.1L82.6,75l90.3,90.3l-28.6,28.6l2,5.9
			c8.8,26,34.3,62.4,68.2,97.4l0.2,0.2c29,28,58.9,50.3,83.1,62.2l-15.5,15.5l14.1,14.1l12.1-12.1l20.3-20.3l17.8-17.8l90.3,90.3
			L419.9,446.5z M360.8,324.9l17.1-17.1l90.3,90.3l-17.1,17.1L360.8,324.9z"/>
		
			<rect x="117.6" y="158.3" transform="matrix(0.7071 -0.7071 0.7071 0.7071 -81.6133 139.4719)" class="st2" width="20" height="20"/>
		
			<rect x="333.7" y="374.5" transform="matrix(0.7071 -0.7071 0.7071 0.7071 -171.1655 355.6688)" class="st2" width="20" height="20"/>
		<polygon class="st2" points="301.1,225 419.3,106.9 419.3,134.3 439.3,134.3 439.3,72.7 377.7,72.7 377.7,92.7 405.1,92.7 
			287,210.9 		"/>
	</g>
</g>
</svg>
