<?xml version="1.0" encoding="utf-8"?>
<!-- Generator: Adobe Illustrator 24.0.1, SVG Export Plug-In . SVG Version: 6.00 Build 0)  -->
<svg version="1.1" id="Layer_1" xmlns="http://www.w3.org/2000/svg" xmlns:xlink="http://www.w3.org/1999/xlink" x="0px" y="0px"
	 viewBox="0 0 512 512" style="enable-background:new 0 0 512 512;" xml:space="preserve">
<style type="text/css">
	.st0{fill:#E6E6E6;}
	.st1{fill:#4D5152;}
	.st2{fill:#FEC700;}
</style>
<g>
	<polygon class="st0" points="346.7,419.4 337.5,436.4 328.2,419.4 311.3,410.1 328.2,400.9 337.5,383.9 346.7,400.9 363.7,410.1 	
		"/>
	<polygon class="st0" points="346.7,155.1 337.5,172 328.2,155.1 311.3,145.8 328.2,136.5 337.5,119.6 346.7,136.5 363.7,145.8 	"/>
	<rect x="10" y="437.7" class="st1" width="20" height="20"/>
	<rect x="136.1" y="327.9" transform="matrix(0.866 -0.5 0.5 0.866 -149.1471 119.0772)" class="st1" width="23" height="20"/>
	<path class="st2" d="M83.2,228.1c-13.7,0-24.9-11.2-24.9-24.9s11.2-24.9,24.9-24.9s24.9,11.2,24.9,24.9S96.9,228.1,83.2,228.1z"/>
	<polygon class="st2" points="128.1,96.4 128.1,68.6 198.5,109.3 198.5,137 	"/>
	<circle class="st2" cx="173.6" cy="262.6" r="24.9"/>
	<path class="st1" d="M122.7,363.8l-10-17.3l-53,30.6v69.3l296.1-171l-137.2-79.2V97.7L108.1,34v98.5L10,75.8v341.9h20V110.5
		l78.1,45.1v10.3c-7.1-4.8-15.7-7.6-24.9-7.6c-24.8,0-44.9,20.1-44.9,44.9c0,24.8,20.1,44.9,44.9,44.9c24.8,0,44.9-20.1,44.9-44.9
		v-83.7l70.4,40.6v65.2c-7.1-4.8-15.7-7.6-24.9-7.6c-24.8,0-44.9,20.1-44.9,44.9s20.1,44.9,44.9,44.9s44.9-20.1,44.9-44.9v-43.3
		l97.2,56.1L79.6,411.7v-23.1L122.7,363.8z M83.2,228.1c-13.7,0-24.9-11.2-24.9-24.9s11.2-24.9,24.9-24.9s24.9,11.2,24.9,24.9
		S96.9,228.1,83.2,228.1z M173.6,287.5c-13.7,0-24.9-11.2-24.9-24.9s11.2-24.9,24.9-24.9s24.9,11.2,24.9,24.9
		S187.4,287.5,173.6,287.5z M198.5,137l-70.4-40.6V68.6l70.4,40.7V137z"/>
	<path class="st2" d="M462.4,297.6c-10.8,0-19.6-8.8-19.6-19.6c0-10.8,8.8-19.6,19.6-19.6c10.8,0,19.6,8.8,19.6,19.6
		C482,288.8,473.2,297.6,462.4,297.6z"/>
	<path class="st1" d="M361.5,386.1l-24-43.9l-24,43.9l-43.9,24l43.9,24l24,43.9l24-43.9l43.9-24L361.5,386.1z M346.7,419.4
		l-9.3,16.9l-9.3-16.9l-16.9-9.3l16.9-9.3l9.3-16.9l9.3,16.9l16.9,9.3L346.7,419.4z"/>
	<path class="st1" d="M361.5,121.8l-24-43.9l-24,43.9l-43.9,24l43.9,24l24,43.9l24-43.9l43.9-24L361.5,121.8z M346.7,155.1
		l-9.3,16.9l-9.3-16.9l-16.9-9.3l16.9-9.3l9.3-16.9l9.3,16.9l16.9,9.3L346.7,155.1z"/>
	<path class="st1" d="M462.4,238.4c-21.8,0-39.6,17.8-39.6,39.6s17.8,39.6,39.6,39.6S502,299.8,502,278S484.2,238.4,462.4,238.4z
		 M462.4,297.6c-10.8,0-19.6-8.8-19.6-19.6c0-10.8,8.8-19.6,19.6-19.6c10.8,0,19.6,8.8,19.6,19.6C482,288.8,473.2,297.6,462.4,297.6
		z"/>
</g>
</svg>
