<?xml version="1.0" encoding="utf-8"?>
<!-- Generator: Adobe Illustrator 24.0.1, SVG Export Plug-In . SVG Version: 6.00 Build 0)  -->
<svg version="1.1" id="Layer_1" xmlns="http://www.w3.org/2000/svg" xmlns:xlink="http://www.w3.org/1999/xlink" x="0px" y="0px"
	 viewBox="0 0 512 512" style="enable-background:new 0 0 512 512;" xml:space="preserve">
<style type="text/css">
	.st0{fill:#4D5152;}
	.st1{fill:#E6E6E6;}
	.st2{fill:#FEC700;}
</style>
<g>
	<path class="st0" d="M256,10v20c124.6,0,226,101.4,226,226h20c0-65.7-25.6-127.5-72-173.9S321.7,10,256,10z"/>
	<path class="st0" d="M256,68.8v20c92.2,0,167.2,75,167.2,167.2h20C443.2,152.7,359.3,68.8,256,68.8z"/>
	<path class="st0" d="M256,127.5v20c59.8,0,108.4,48.6,108.4,108.4l20,0C384.5,185.2,326.8,127.5,256,127.5z"/>
	
		<rect x="132.9" y="39.1" transform="matrix(0.7071 -0.7071 0.7071 0.7071 -30.3158 132.6764)" class="st1" width="24.2" height="127.7"/>
	
		<rect x="397" y="303.2" transform="matrix(0.7071 -0.7071 0.7071 0.7071 -139.704 396.7522)" class="st1" width="24.2" height="127.7"/>
	<path class="st2" d="M209.4,302.9c29,28,58.9,50.3,83.1,62.2l-15.5,15.5l14.1,14.1l26-26l42.4,42.4l-7.1,7.1l47.9,47.9l-15.9,15.9
		c-19.3,0.8-115.7-1.8-234.2-120.2C31.9,243.3,29.3,146.8,30.1,127.5l15.8-15.8l47.9,47.9l7.1-7.1l42.4,42.4l-4.4,4.4l2,5.9
		c8.8,26,34.3,62.4,68.2,97.4"/>
	<path class="st0" d="M87.1,183.5l-19,6.4C79.9,225,107.1,280,169.5,342.5c13.5,13.5,27.3,26,41.2,37.2l12.6-15.5
		c-13.3-10.8-26.6-22.9-39.6-35.9C124,268.6,98.2,216.6,87.1,183.5z"/>
	
		<rect x="112.1" y="163.7" transform="matrix(0.7071 -0.7071 0.7071 0.7071 -87.0797 137.2073)" class="st0" width="20" height="20"/>
	
		<rect x="328.3" y="379.9" transform="matrix(0.7071 -0.7071 0.7071 0.7071 -176.632 353.4057)" class="st0" width="20" height="20"/>
	<path class="st0" d="M307.5,350c-22.7-9.6-54.2-32.5-84.1-61.4c-28.9-29.9-51.8-61.4-61.4-84.1l65-65L123.1,35.7l-14.7-14.8
		l-97.6,97.6l-0.4,3.5c-0.3,3.2-2.9,33,11.6,78.6c19,59.5,57.4,118.4,114.1,175.2C192.9,432.6,251.8,471,311.3,490
		c32.3,10.3,56.6,12,69.2,12c5.2,0,8.4-0.3,9.4-0.4l3.5-0.4l97.6-97.6L372.5,285L307.5,350z M198.7,139.5l-17.1,17.1L91.3,66.3
		l17.1-17.1L198.7,139.5z M150.3,361.7C31.9,243.3,29.3,146.8,30.1,127.5l15.8-15.8l47.9,47.9l14.1-14.1L60.1,97.5l17.1-17.1
		l90.3,90.3l-28.6,28.6l2,5.9c8.8,26,34.3,62.4,68.2,97.4l0.2,0.2c29,28,58.9,50.3,83.1,62.2l-15.5,15.5l14.1,14.1l12.1-12.1
		l20.3-20.3l17.8-17.8l90.3,90.3l-17.1,17.1l-47.9-47.9l-14.1,14.1l47.9,47.9l-15.9,15.9C365.2,482.7,268.7,480.1,150.3,361.7z
		 M462.8,403.6l-17.1,17.1l-90.3-90.3l17.1-17.1L462.8,403.6z"/>
</g>
</svg>
