<?xml version="1.0" encoding="utf-8"?>
<!-- Generator: Adobe Illustrator 24.0.1, SVG Export Plug-In . SVG Version: 6.00 Build 0)  -->
<svg version="1.1" id="Layer_1" xmlns="http://www.w3.org/2000/svg" xmlns:xlink="http://www.w3.org/1999/xlink" x="0px" y="0px"
	 viewBox="0 0 512 512" style="enable-background:new 0 0 512 512;" xml:space="preserve">
<style type="text/css">
	.st0{fill:#E6E6E6;}
	.st1{fill:#FEC700;}
	.st2{fill:#4D5152;}
</style>
<g>
	<g>
		<path class="st0" d="M103.6,57.1h20.5c4.4,15.6,18.7,27.1,35.7,27.1s31.4-11.5,35.7-27.1h24.7c4.4,15.6,18.7,27.1,35.7,27.1
			s31.4-11.5,35.7-27.1h24.7c4.4,15.6,18.7,27.1,35.7,27.1s31.4-11.5,35.7-27.1h20.5v44.2H123.6v10h-20V57.1z"/>
	</g>
	<rect x="143.6" y="161.3" class="st1" width="224.9" height="280.7"/>
	<g>
		<rect x="408.4" y="141.3" class="st2" width="20" height="19.7"/>
		<path class="st2" d="M352.2,37.1v20H366c-3.1,4.3-8.2,7.1-13.9,7.1c-9.4,0-17.1-7.7-17.1-17.1S342.8,30,352.2,30V10
			c-17,0-31.4,11.5-35.7,27.1H256v20h13.9c-3.1,4.3-8.2,7.1-13.9,7.1c-9.4,0-17.1-7.7-17.1-17.1S246.6,30,256,30V10
			c-17,0-31.4,11.5-35.7,27.1h-60.4v20h13.9c-3.1,4.3-8.2,7.1-13.9,7.1c-9.4,0-17.1-7.7-17.1-17.1S150.4,30,159.8,30V10
			c-17,0-31.4,11.5-35.7,27.1H83.6V502h344.9V181h-20v301H103.6V57.1h20.5c4.4,15.6,18.7,27.1,35.7,27.1s31.4-11.5,35.7-27.1h24.7
			c4.4,15.6,18.7,27.1,35.7,27.1s31.4-11.5,35.7-27.1h24.7c4.4,15.6,18.7,27.1,35.7,27.1s31.4-11.5,35.7-27.1h20.5v44.2H123.6v20
			h304.9V37.1H352.2z"/>
		<path class="st2" d="M123.6,462h264.9V141.3H123.6V462z M143.6,161.3h224.9V442H143.6V161.3z"/>
		<rect x="163.6" y="215.1" class="st2" width="20" height="20"/>
		<rect x="203.6" y="215.1" class="st2" width="144.9" height="20"/>
		<rect x="163.6" y="291.7" class="st2" width="184.9" height="20"/>
		<rect x="328.4" y="368.2" class="st2" width="20" height="20"/>
		<rect x="163.6" y="368.2" class="st2" width="144.9" height="20"/>
	</g>
</g>
</svg>
