<?xml version="1.0" encoding="utf-8"?>
<!-- Generator: Adobe Illustrator 24.0.1, SVG Export Plug-In . SVG Version: 6.00 Build 0)  -->
<svg version="1.1" id="Layer_1" xmlns="http://www.w3.org/2000/svg" xmlns:xlink="http://www.w3.org/1999/xlink" x="0px" y="0px"
	 viewBox="0 0 512 512" style="enable-background:new 0 0 512 512;" xml:space="preserve">
<style type="text/css">
	.st0{fill:#FEC700;}
	.st1{fill:#E6E6E6;}
	.st2{fill:#4D5152;}
</style>
<g>
	<polygon class="st0" points="429.7,235.2 482,201.9 482,159.1 30,159.1 30,189.7 256,336 424.4,227 	"/>
	<polygon class="st1" points="135.1,40.6 135.1,257.7 256,336 376.9,257.7 376.9,40.6 	"/>
	<g>
		<polygon class="st2" points="468.9,222 458.2,205.1 441.4,216 452.1,232.9 		"/>
		<path class="st2" d="M396.9,139.1V20.6H115.1v118.5H10v352.3h492V139.1H396.9z M482,159.1v295.5L347.9,300.3l87.4-56.6L424.4,227
			l-27.5,17.8v-85.6H482z M164.1,300.3L30,454.6V213.5L164.1,300.3z M181.1,311.3l74.9,48.5l74.9-48.5l139.1,160.1H41.9L181.1,311.3
			z M376.9,40.6v217.1L256,336l-120.9-78.3V40.6H376.9z M115.1,159.1v85.6L30,189.7v-30.6H115.1z"/>
		<rect x="162.5" y="147.2" class="st2" width="186.9" height="20"/>
		<rect x="329.5" y="198.4" class="st2" width="20" height="20"/>
		<rect x="162.5" y="198.4" class="st2" width="146.9" height="20"/>
		<rect x="162.5" y="96.1" class="st2" width="20" height="20"/>
		<rect x="202.5" y="96.1" class="st2" width="146.9" height="20"/>
	</g>
</g>
</svg>
