<?xml version="1.0" encoding="utf-8"?>
<!-- Generator: Adobe Illustrator 24.0.1, SVG Export Plug-In . SVG Version: 6.00 Build 0)  -->
<svg version="1.1" id="Layer_1" xmlns="http://www.w3.org/2000/svg" xmlns:xlink="http://www.w3.org/1999/xlink" x="0px" y="0px"
	 viewBox="0 0 512 512" style="enable-background:new 0 0 512 512;" xml:space="preserve">
<style type="text/css">
	.st0{fill:#FEC700;}
	.st1{fill:#E6E6E6;}
	.st2{fill:#4D5152;}
</style>
<g>
	<path class="st0" d="M341.8,157.8c0-40.5-32.9-73.4-73.4-73.4c-37.1,0-67.8,27.6-72.7,63.4h86.1v10H341.8z"/>
	<path class="st0" d="M195.1,279.2c0,40.5,32.9,73.4,73.4,73.4c37.1,0,67.8-27.6,72.7-63.4h-86.1v-9L195.1,279.2z"/>
	<polygon class="st1" points="427.1,72.7 421,84 414.8,72.7 403.5,66.5 414.8,60.3 421,49 427.1,60.3 438.4,66.5 	"/>
	<path class="st0" d="M468.7,217.8c-5.5,0-10-4.5-10-10c0-5.5,4.5-10,10-10s10,4.5,10,10C478.7,213.3,474.2,217.8,468.7,217.8z"/>
	<polygon class="st1" points="78.6,195.7 72.5,207 66.3,195.7 55,189.5 66.3,183.3 72.5,172 78.6,183.3 89.9,189.5 	"/>
	<path class="st0" d="M120.2,38.2c5.5,0,10,4.5,10,10c0,5.5-4.5,10-10,10c-5.5,0-10-4.5-10-10C110.2,42.6,114.7,38.2,120.2,38.2z"/>
	<path class="st2" d="M441.9,45.6L421,7.3L400,45.6l-38.2,20.9L400,87.4l20.9,38.2l20.9-38.2l38.2-20.9L441.9,45.6z M427.1,72.7
		L421,84l-6.2-11.3l-11.3-6.2l11.3-6.2L421,49l6.2,11.3l11.3,6.2L427.1,72.7z"/>
	<path class="st2" d="M468.7,177.8c-16.5,0-30,13.5-30,30c0,16.5,13.5,30,30,30s30-13.5,30-30C498.7,191.3,485.3,177.8,468.7,177.8z
		 M468.7,217.8c-5.5,0-10-4.5-10-10c0-5.5,4.5-10,10-10s10,4.5,10,10C478.7,213.3,474.2,217.8,468.7,217.8z"/>
	<path class="st2" d="M93.4,168.6l-20.9-38.2l-20.9,38.2l-38.2,20.9l38.3,20.9l20.9,38.2l20.9-38.2l38.2-20.9L93.4,168.6z
		 M78.6,195.7L72.5,207l-6.2-11.3L55,189.5l11.3-6.2l6.2-11.3l6.2,11.3l11.3,6.2L78.6,195.7z"/>
	<path class="st2" d="M120.2,18.2c-16.5,0-30,13.5-30,30c0,16.5,13.5,30,30,30c16.5,0,30-13.5,30-30
		C150.2,31.6,136.8,18.2,120.2,18.2z M120.2,58.2c-5.5,0-10-4.5-10-10c0-5.5,4.5-10,10-10c5.5,0,10,4.5,10,10
		C130.2,53.7,125.7,58.2,120.2,58.2z"/>
	<rect x="301.8" y="147.8" class="st2" width="20" height="20"/>
	<path class="st2" d="M281.8,147.8h-86.1c4.9-35.8,35.6-63.4,72.7-63.4c40.5,0,73.4,32.9,73.4,73.4v71.4H215.1v20h146.8v-91.4
		c0-51.5-41.9-93.4-93.4-93.4c-51.5,0-93.4,41.9-93.4,93.4v10h106.8V147.8z"/>
	<path class="st2" d="M268.5,392.5c-62.5,0-113.4-50.9-113.4-113.4h-20c0,70.2,54.5,127.9,123.4,133v46.2
		c-25.2,2.2-49.7,13-68.9,32.2l14.1,14.1c35.7-35.7,93.9-35.7,129.6,0l14.1-14.1c-19.2-19.2-43.8-29.9-68.9-32.2v-46.2
		c68.9-5.1,123.4-62.8,123.4-133h-20C381.8,341.7,331,392.5,268.5,392.5z"/>
	<path class="st2" d="M268.5,372.5c51.5,0,93.4-41.9,93.4-93.4v-10H255.1v20h86.1c-4.9,35.8-35.6,63.4-72.7,63.4
		c-40.5,0-73.4-32.9-73.4-73.4v-71.4h126.8v-20H175.1v91.4C175.1,330.7,217,372.5,268.5,372.5z"/>
	<rect x="215.1" y="269.2" class="st2" width="20" height="20"/>
</g>
</svg>
