<?xml version="1.0" encoding="utf-8"?>
<!-- Generator: Adobe Illustrator 24.0.1, SVG Export Plug-In . SVG Version: 6.00 Build 0)  -->
<svg version="1.1" id="Layer_1" xmlns="http://www.w3.org/2000/svg" xmlns:xlink="http://www.w3.org/1999/xlink" x="0px" y="0px"
	 viewBox="0 0 512 512" style="enable-background:new 0 0 512 512;" xml:space="preserve">
<style type="text/css">
	.st0{fill:#FEC700;}
	.st1{fill:#4D5152;}
</style>
<g>
	<rect x="74.1" y="113" class="st0" width="363.9" height="184.6"/>
	<g>
		<path class="st1" d="M457.9,93H54.1v224.6h403.9V93z M437.9,297.6H74.1V113h363.9V297.6z"/>
		<path class="st1" d="M10,48.9v396.7l159.8-84H502V48.9H10z M482,341.7H94.1v20h32.7L30,412.5V68.9h452V341.7z"/>
		<polygon class="st1" points="349.8,391.6 368.4,410.3 178.3,410.3 178.3,430.3 368.4,430.3 349.8,448.9 363.9,463.1 406.7,420.3 
			363.9,377.5 		"/>
		<rect x="54.1" y="341.7" class="st1" width="20" height="20"/>
		<rect x="148.3" y="195.3" class="st1" width="215.4" height="20"/>
		<rect x="343.7" y="246.5" class="st1" width="20" height="20"/>
		<rect x="148.3" y="246.5" class="st1" width="175.4" height="20"/>
		<rect x="148.3" y="144.1" class="st1" width="20" height="20"/>
		<rect x="188.3" y="144.1" class="st1" width="175.4" height="20"/>
	</g>
</g>
</svg>
