<?xml version="1.0" encoding="utf-8"?>
<!-- Generator: Adobe Illustrator 24.0.1, SVG Export Plug-In . SVG Version: 6.00 Build 0)  -->
<svg version="1.1" id="Layer_1" xmlns="http://www.w3.org/2000/svg" xmlns:xlink="http://www.w3.org/1999/xlink" x="0px" y="0px"
	 viewBox="0 0 512 512" style="enable-background:new 0 0 512 512;" xml:space="preserve">
<style type="text/css">
	.st0{fill:#4D5152;}
	.st1{fill:#FEC700;}
</style>
<g>
	<g>
		<path class="st0" d="M429.9,82.1C383.5,35.6,321.7,10,256,10S128.5,35.6,82.1,82.1S10,190.3,10,256s25.6,127.5,72.1,173.9
			C128.5,476.4,190.3,502,256,502s127.5-25.6,173.9-72.1C476.4,383.5,502,321.7,502,256S476.4,128.5,429.9,82.1z M466.2,173.1
			c-10.5-11.1-23.2-21.4-38-30.8c-20-12.6-42.7-22.7-67.4-30.2c-5.1-13.6-10.8-26.2-17.3-37.6c-8.1-14.4-17.2-26.5-26.9-36.2
			C385,57.3,440.4,107.8,466.2,173.1z M429.8,286.5c-13.8,4-29.6,7.4-46.8,10.3c0.3-3.4,0.5-6.7,0.8-10.1l-20-1.3
			c-0.3,4.8-0.7,9.7-1.2,14.4c-23.9,3.1-49.9,5.2-77,6.1l0.6,20c25.8-0.8,50.7-2.8,73.9-5.6c-3.3,22.5-8.3,43.8-14.8,63.2
			c-27.9,7.4-58.1,11.3-89.4,11.3c-31.3,0-61.5-3.9-89.4-11.3c-6.5-19.4-11.5-40.7-14.8-63.2c23.1,2.9,48.1,4.8,73.9,5.6l0.6-20
			c-27.1-0.9-53.1-3-77-6.1c-0.5-4.8-0.9-9.6-1.2-14.4l-20,1.3c0.2,3.4,0.5,6.8,0.8,10.1c-17.2-2.9-33-6.3-46.8-10.3
			C41,274.6,30,261.7,30,256c0-5.7,11-18.6,52.2-30.5c13.8-4,29.6-7.4,46.8-10.3c-0.3,3.4-0.5,6.7-0.8,10.1l20,1.3
			c0.3-4.8,0.7-9.7,1.2-14.4c23.9-3.1,49.9-5.2,77-6.1l-0.6-20c-25.8,0.8-50.7,2.8-73.9,5.6c3.3-22.5,8.3-43.8,14.8-63.2
			c27.9-7.4,58.1-11.3,89.4-11.3c31.3,0,61.5,3.9,89.4,11.3c6.5,19.4,11.5,40.7,14.8,63.2c-23.1-2.9-48-4.8-73.9-5.6l-0.6,20
			c27.1,0.9,53.1,3,77,6.1c0.5,4.8,0.9,9.6,1.2,14.4l20-1.3c-0.2-3.4-0.5-6.8-0.8-10.1c17.2,2.9,33,6.3,46.8,10.3
			C471,237.4,482,250.3,482,256C482,261.7,471,274.6,429.8,286.5z M475,290.1c-9.7,23.3-29.3,44.9-57.5,62.7
			c-14.8,9.3-31.2,17.2-49,23.5c5.3-18.5,9.5-38.3,12.2-58.9c20.1-3.2,38.6-7.1,54.6-11.7C451.5,301,464.7,295.8,475,290.1z
			 M256,482c-25.3,0-50.2-19.3-70.1-54.4c-3.8-6.7-7.4-13.9-10.6-21.4c25.6,5.7,52.8,8.7,80.7,8.7c27.9,0,55.1-3,80.7-8.7
			c-3.3,7.6-6.8,14.7-10.6,21.4C306.2,462.7,281.3,482,256,482z M143.4,376.3c-17.7-6.3-34.2-14.2-49-23.5
			C66.3,335,46.7,313.5,37,290.1c10.3,5.7,23.5,10.9,39.7,15.5c16,4.6,34.4,8.5,54.6,11.7C134,338,138.1,357.8,143.4,376.3z
			 M37,221.9c9.7-23.3,29.3-44.9,57.5-62.7c14.8-9.3,31.2-17.2,49-23.5c-5.3,18.5-9.5,38.3-12.2,58.9c-20.1,3.2-38.6,7.1-54.6,11.7
			C60.5,211,47.3,216.2,37,221.9z M256,30c25.3,0,50.2,19.3,70.1,54.4c3.8,6.7,7.4,13.9,10.6,21.4c-25.6-5.7-52.8-8.7-80.7-8.7
			c-27.9,0-55.1,3-80.7,8.7c3.3-7.6,6.8-14.7,10.6-21.4C205.8,49.3,230.7,30,256,30z M368.6,135.7c17.7,6.3,34.2,14.2,49,23.5
			c28.2,17.8,47.8,39.3,57.5,62.7c-10.3-5.7-23.5-10.9-39.7-15.5c-16-4.6-34.4-8.5-54.6-11.7C378,174,373.9,154.2,368.6,135.7z
			 M195.4,38.3c-9.7,9.7-18.7,21.9-26.9,36.2c-6.5,11.4-12.3,24-17.3,37.6c-24.7,7.5-47.4,17.6-67.4,30.2
			c-14.8,9.3-27.5,19.7-38,30.8C71.6,107.8,127,57.3,195.4,38.3z M45.8,338.9c10.5,11.1,23.2,21.4,38,30.8
			c20,12.6,42.7,22.7,67.4,30.2c5.1,13.6,10.8,26.2,17.3,37.6c8.1,14.4,17.2,26.5,26.9,36.2C127,454.7,71.6,404.2,45.8,338.9z
			 M316.6,473.7c9.7-9.7,18.7-21.9,26.9-36.2c6.5-11.4,12.3-24,17.3-37.6c24.7-7.5,47.4-17.6,67.4-30.2c14.8-9.3,27.5-19.7,38-30.8
			C440.4,404.2,385,454.7,316.6,473.7z"/>
		<path class="st0" d="M245.9,185.7l0.2,20c6.6-0.1,13.2-0.1,19.8,0l0.2-20C259.4,185.6,252.6,185.6,245.9,185.7z"/>
		<path class="st0" d="M246.1,306.3l-0.2,20c3.4,0,6.7,0.1,10.1,0.1c3.4,0,6.8,0,10.1-0.1l-0.2-20
			C259.3,306.4,252.7,306.4,246.1,306.3z"/>
		<path class="st0" d="M127.4,245.8c-0.1,3.4-0.1,6.8-0.1,10.2c0,3.4,0,6.8,0.1,10.2l20-0.4c-0.1-3.2-0.1-6.5-0.1-9.8
			c0-3.3,0-6.6,0.1-9.8L127.4,245.8z"/>
		<path class="st0" d="M364.6,246.2c0.1,3.2,0.1,6.5,0.1,9.8s0,6.5-0.1,9.8l20,0.4c0.1-3.4,0.1-6.8,0.1-10.2s0-6.8-0.1-10.2
			L364.6,246.2z"/>
	</g>
	<path class="st1" d="M362.6,299.8c0.5-4.8,0.9-9.6,1.2-14.4l20,1.3c-0.2,3.4-0.5,6.8-0.8,10.1c17.2-2.9,33-6.3,46.8-10.3
		C471,274.6,482,261.7,482,256c0-5.7-11-18.6-52.2-30.5c-13.8-4-29.6-7.4-46.8-10.3c0.3,3.4,0.5,6.7,0.8,10.1l-20,1.3
		c-0.3-4.8-0.7-9.7-1.2-14.4c-23.9-3.1-49.9-5.2-77-6.1l0.3-10c-6.6-0.2-13.3-0.4-20-0.4l-0.1,10c-6.6-0.1-13.2-0.1-19.8,0l-0.1-10
		c-6.7,0.1-13.4,0.2-20,0.4l0.3,10c-27.1,0.9-53.1,3-77,6.1c-0.5,4.8-0.9,9.6-1.2,14.4l-20-1.3c0.2-3.4,0.5-6.8,0.8-10.1
		c-17.2,2.9-33,6.3-46.8,10.3C41,237.4,30,250.3,30,256c0,5.7,11,18.6,52.2,30.5c13.8,4,29.6,7.4,46.8,10.3
		c-0.3-3.4-0.5-6.7-0.8-10.1l20-1.3c0.3,4.8,0.7,9.7,1.2,14.4c23.9,3.1,49.9,5.2,77,6.1l-0.3,10c6.6,0.2,13.2,0.4,20,0.4l0.1-10
		c6.6,0.1,13.2,0.1,19.8,0l0.1,10c6.7-0.1,13.4-0.2,20-0.4l-0.3-10C312.8,305,338.8,302.9,362.6,299.8z M364.6,246.2l20-0.4
		c0.1,3.4,0.1,6.8,0.1,10.2c0,3.4,0,6.8-0.1,10.2l-20-0.4c0.1-3.2,0.1-6.5,0.1-9.8C364.7,252.7,364.7,249.5,364.6,246.2z
		 M147.4,265.8l-20,0.4c-0.1-3.4-0.1-6.8-0.1-10.2c0-3.4,0-6.8,0.1-10.2l20,0.4c-0.1,3.2-0.1,6.5-0.1,9.8
		C147.3,259.3,147.3,262.6,147.4,265.8z"/>
</g>
</svg>
