<?xml version="1.0" encoding="utf-8"?>
<!-- Generator: Adobe Illustrator 24.0.1, SVG Export Plug-In . SVG Version: 6.00 Build 0)  -->
<svg version="1.1" id="Layer_1" xmlns="http://www.w3.org/2000/svg" xmlns:xlink="http://www.w3.org/1999/xlink" x="0px" y="0px"
	 viewBox="0 0 512 512" style="enable-background:new 0 0 512 512;" xml:space="preserve">
<style type="text/css">
	.st0{fill:#FEC700;}
	.st1{fill:#E6E6E6;}
	.st2{fill:#4D5152;}
</style>
<g>
	<polygon class="st0" points="30,202.5 90,202.5 90,212.5 482,212.5 482,259.7 492,259.7 492,279.7 182.9,279.7 96.8,482.8 
		30,482.8 	"/>
	<polygon class="st1" points="482,299.7 196.1,299.7 114.3,492.8 184,492.8 184,482.8 482,482.8 	"/>
	<g>
		<polygon class="st2" points="170.3,80.7 184.5,94.8 227.3,52 184.5,9.2 170.3,23.4 189,42 10,42 10,62 189,62 		"/>
		<polygon class="st2" points="323,113.5 341.7,94.8 327.5,80.7 284.7,123.5 327.5,166.3 341.7,152.1 323,133.5 502,133.5 
			502,113.5 		"/>
		<rect x="144" y="482.8" class="st2" width="20" height="20"/>
		<rect x="270.3" y="422.2" class="st2" width="157.6" height="20"/>
		<rect x="359.8" y="360.4" class="st2" width="20" height="20"/>
		<rect x="270.3" y="360.4" class="st2" width="69.6" height="20"/>
		<polygon class="st2" points="232.1,123.4 10,123.4 10,502.8 110.1,502.8 196.1,299.7 482,299.7 482,482.8 184,482.8 184,502.8 
			502,502.8 502,279.7 182.9,279.7 96.8,482.8 30,482.8 30,143.4 219.1,143.4 241,192.5 90,192.5 90,212.5 482,212.5 482,259.7 
			502,259.7 502,192.5 262.9,192.5 		"/>
		<rect x="50" y="192.5" class="st2" width="20" height="20"/>
	</g>
</g>
</svg>
