<?xml version="1.0" encoding="utf-8"?>
<!-- Generator: Adobe Illustrator 24.0.1, SVG Export Plug-In . SVG Version: 6.00 Build 0)  -->
<svg version="1.1" id="Layer_1" xmlns="http://www.w3.org/2000/svg" xmlns:xlink="http://www.w3.org/1999/xlink" x="0px" y="0px"
	 viewBox="0 0 512 512" style="enable-background:new 0 0 512 512;" xml:space="preserve">
<style type="text/css">
	.st0{fill:#FEC700;}
	.st1{fill:#4D5152;}
</style>
<g>
	<polygon class="st0" points="429.7,175.9 482,142.7 482,99.9 30,99.9 30,130.5 256,276.7 424.4,167.7 	"/>
	<g>
		<polygon class="st1" points="468.9,162.8 458.2,145.9 441.4,156.7 452.1,173.7 		"/>
		<path class="st1" d="M10,79.9v352.3h492V79.9H10z M30,154.3l134.1,86.8L30,395.4V154.3z M41.9,412.1l139.1-160.1l74.9,48.5
			l74.9-48.5l139.1,160.1H41.9z M482,395.4L347.9,241.1l87.4-56.6l-10.9-16.8L256,276.7L30,130.5V99.9h452V395.4z"/>
		<rect x="201.2" y="186.6" class="st1" width="20" height="20"/>
		<rect x="241.2" y="186.6" class="st1" width="69.6" height="20"/>
		<rect x="162.5" y="135.5" class="st1" width="186.9" height="20"/>
	</g>
</g>
</svg>
